<?xml version="1.0" encoding="UTF-8" standalone="no"?>
<!-- Created with Inkscape (http://www.inkscape.org/) -->

<svg
   xmlns:dc="http://purl.org/dc/elements/1.1/"
   xmlns:cc="http://creativecommons.org/ns#"
   xmlns:rdf="http://www.w3.org/1999/02/22-rdf-syntax-ns#"
   xmlns:svg="http://www.w3.org/2000/svg"
   xmlns="http://www.w3.org/2000/svg"
   xmlns:xlink="http://www.w3.org/1999/xlink"
   xmlns:sodipodi="http://sodipodi.sourceforge.net/DTD/sodipodi-0.dtd"
   xmlns:inkscape="http://www.inkscape.org/namespaces/inkscape"
   width="744.09448819"
   height="1052.3622047"
   id="svg2"
   version="1.1"
   inkscape:version="0.48.1 r9760"
   sodipodi:docname="gears_of_roar.svg">
  <defs
     id="defs4" />
  <sodipodi:namedview
     id="base"
     pagecolor="#ffffff"
     bordercolor="#666666"
     borderopacity="1.0"
     inkscape:pageopacity="0.0"
     inkscape:pageshadow="2"
     inkscape:zoom="0.7"
     inkscape:cx="498.54493"
     inkscape:cy="558.81176"
     inkscape:document-units="px"
     inkscape:current-layer="layer1"
     showgrid="false"
     inkscape:window-width="1366"
     inkscape:window-height="720"
     inkscape:window-x="0"
     inkscape:window-y="0"
     inkscape:window-maximized="0" />
  <metadata
     id="metadata7">
    <rdf:RDF>
      <cc:Work
         rdf:about="">
        <dc:format>image/svg+xml</dc:format>
        <dc:type
           rdf:resource="http://purl.org/dc/dcmitype/StillImage" />
        <dc:title></dc:title>
      </cc:Work>
    </rdf:RDF>
  </metadata>
  <g
     inkscape:label="Layer 1"
     inkscape:groupmode="layer"
     id="layer1">
    <image
       y="168.00504"
       x="22.71431"
       id="image3047"
       xlink:href="file:///Users/nickwarner/repositories/nikolaiwarner/electric-boogaloo/designs/the_lock.png"
       height="685.85712"
       width="695.99298" />
    <path
       sodipodi:type="arc"
       style="fill:#ff0000;fill-rule:evenodd;stroke:#000000;stroke-width:1px;stroke-linecap:butt;stroke-linejoin:miter;stroke-opacity:1"
       id="path3050"
       sodipodi:cx="376.42856"
       sodipodi:cy="301.64789"
       sodipodi:rx="83.571426"
       sodipodi:ry="83.571426"
       d="m 459.99998,301.64789 a 83.571426,83.571426 0 1 1 -167.14285,0 83.571426,83.571426 0 1 1 167.14285,0 z"
       transform="translate(242.85714,-43.428567)" />
    <path
       style="fill:#ff0000;fill-rule:evenodd;stroke:#000000;stroke-width:1.01339138px;stroke-linecap:butt;stroke-linejoin:miter;stroke-opacity:1"
       d="M 313 310.71875 C 307.94574 310.6817 306 319.59375 306 319.59375 L 301.84375 384.34375 C 292.9997 387.09473 284.40934 390.43192 276.09375 394.25 C 262.28356 380.00197 241.81921 359.62764 230.90625 352.46875 C 213.46003 341.02402 216.75 360 216.75 360 L 236.3125 417.96875 C 228.33202 423.98205 220.783 430.55249 213.71875 437.59375 C 196.14854 428.42211 170.72984 415.7738 158.25 412.4375 C 138.09277 407.04875 147.21875 424.03125 147.21875 424.03125 L 184.53125 473.6875 C 179.41207 481.6332 174.80815 489.94692 170.75 498.5625 C 151.24229 495.99332 124.66367 493.04291 112.25 494.125 C 91.463716 495.9369 105.8125 508.78125 105.8125 508.78125 L 155.875 541.4375 C 153.50682 551.64605 151.86148 562.13684 151 572.84375 C 132.07619 575.98597 108.36744 580.46919 97.53125 584.78125 C 78.144674 592.49573 95.59375 600.65625 95.59375 600.65625 L 151.9375 617.28125 C 153.1317 626.87568 154.96316 636.27716 157.375 645.4375 C 140.76261 655.17206 120.03996 667.91827 111.40625 675.875 C 96.063096 690.01503 115.28125 691.40625 115.28125 691.40625 L 173 686.8125 C 177.78257 696.3614 183.28146 705.51231 189.375 714.1875 C 177.59378 728.7248 163.87452 746.49358 158.84375 756.40625 C 149.40097 775.01234 167.90625 769.625 167.90625 769.625 L 217.28125 746.59375 C 224.84373 753.79218 232.92493 760.48192 241.46875 766.53125 C 234.64817 784.75124 226.26859 808.61706 224.5625 820.53125 C 221.6048 841.18566 237.375 830.125 237.375 830.125 L 280.78125 788.5625 C 289.70641 792.40405 298.93834 795.65806 308.4375 798.28125 C 309.15185 816.92047 310.52058 839.12851 313.25 849.84375 C 318.40034 870.06321 328.75 853.84375 328.75 853.84375 L 350.09375 805.46875 C 355.34792 805.85177 360.64812 806.0625 366 806.0625 C 372.20096 806.0625 378.3379 805.79402 384.40625 805.28125 C 390.36366 822.46281 397.7625 842.148 403.25 851.25 C 414.02294 869.11887 419.25 850.59375 419.25 850.59375 L 425.78125 797.65625 C 433.74103 795.36582 441.50919 792.65347 449.0625 789.5 C 463.11896 802.93275 481.70462 819.97035 491.96875 826.21875 C 509.79117 837.06837 505.84375 818.21875 505.84375 818.21875 L 487.28125 768.75 C 495.71485 763.00615 503.73114 756.69434 511.25 749.84375 C 529.03352 758.10219 553.0416 768.65561 565.0625 771.3125 C 585.43591 775.8155 575.59375 759.28125 575.59375 759.28125 L 540.71875 716.875 C 545.48221 710.30854 549.89433 703.47037 553.90625 696.375 C 573.50395 696.63095 606.46678 696.57141 620.4375 693.5625 C 640.83491 689.16948 625 678.21875 625 678.21875 L 572.5625 652.71875 C 575.87371 641.73372 578.34565 630.36616 579.875 618.71875 C 599.02832 614.47024 624.6432 608.21305 635.84375 603 C 654.76034 594.19571 636.875 587.03125 636.875 587.03125 L 581.09375 574 C 580.29971 563.42543 578.73291 553.0634 576.46875 542.96875 C 592.93294 532.64603 613.96492 518.84134 622.53125 510.4375 C 637.42572 495.82561 618.1875 495 618.1875 495 L 562.46875 501.1875 C 558.08011 491.53494 552.98765 482.26644 547.28125 473.4375 C 558.76283 457.55159 573.67571 436.03463 578.5625 424.75 C 586.85405 405.60312 568.71875 412.125 568.71875 412.125 L 519.5 438.84375 C 511.17114 430.40727 502.14896 422.66621 492.53125 415.6875 C 499.76139 397.25097 510.6541 368.05737 512.71875 354.4375 C 515.846 333.80808 500 344.71875 500 344.71875 L 450.125 391.65625 C 441.32787 387.92705 432.22355 384.79899 422.875 382.25 C 423.28119 362.5036 423.30483 335.06652 420.8125 322.65625 C 416.70425 302.19959 405.53125 317.90625 405.53125 317.90625 L 376.78125 374.9375 C 373.20703 374.76142 369.61787 374.65625 366 374.65625 C 360.10688 374.65625 354.27382 374.91127 348.5 375.375 C 341.15964 356.92754 329.52018 329.11013 321.90625 318 C 318.22028 312.62148 315.29739 310.73559 313 310.71875 z M 330.875 525.5 C 341.00929 525.42117 351.37986 525.58392 361.96875 526.0625 C 474.91693 531.16733 567.70033 567.07105 569.21875 606.21875 C 570.73717 645.36645 480.41693 672.94858 367.46875 667.84375 C 254.52057 662.73892 161.73717 626.86645 160.21875 587.71875 C 158.84268 552.24115 232.9102 526.26206 330.875 525.5 z "
       id="path3074" />
    <path
       style="fill:#000000;stroke:#000000;stroke-width:1px;stroke-linecap:butt;stroke-linejoin:miter;stroke-opacity:1;fill-opacity:1"
       d="M 745.71875 473.78125 L 725.71875 475.21875 L 714.28125 523.78125 L 687.15625 535.21875 L 648.5625 516.65625 L 634.28125 533.78125 L 661.4375 578.0625 L 647.15625 605.21875 L 610 619.5 L 610 639.5 L 651.4375 653.78125 L 662.84375 679.5 L 644.28125 716.65625 L 658.5625 728.0625 L 698.5625 708.0625 L 721.4375 719.5 L 737.15625 750.9375 L 757.15625 750.9375 L 765.71875 715.21875 L 794.28125 702.375 L 830 715.21875 L 842.84375 696.65625 L 825.71875 668.0625 L 837.15625 636.65625 L 874.28125 618.0625 L 874.28125 600.9375 L 825.71875 583.78125 L 820 565.21875 L 838.5625 520.9375 L 827.15625 505.21875 L 782.84375 533.78125 L 762.84375 523.78125 L 745.71875 473.78125 z M 743.71875 586.9375 C 761.07627 586.9375 775.15625 601.01748 775.15625 618.375 C 775.15625 635.73252 761.07627 649.78125 743.71875 649.78125 C 726.36123 649.78125 712.28125 635.73252 712.28125 618.375 C 712.28125 601.01748 726.36123 586.9375 743.71875 586.9375 z "
       id="path3971" />
  </g>
</svg>
