<?xml version="1.0" encoding="UTF-8" standalone="no"?>
<!-- Created with Inkscape (http://www.inkscape.org/) -->

<svg
   xmlns:dc="http://purl.org/dc/elements/1.1/"
   xmlns:cc="http://creativecommons.org/ns#"
   xmlns:rdf="http://www.w3.org/1999/02/22-rdf-syntax-ns#"
   xmlns:svg="http://www.w3.org/2000/svg"
   xmlns="http://www.w3.org/2000/svg"
   xmlns:sodipodi="http://sodipodi.sourceforge.net/DTD/sodipodi-0.dtd"
   xmlns:inkscape="http://www.inkscape.org/namespaces/inkscape"
   width="744.09448819"
   height="1052.3622047"
   id="svg2"
   version="1.1"
   inkscape:version="0.48.1 r9760"
   sodipodi:docname="drawing.svg">
  <sodipodi:namedview
     id="base"
     pagecolor="#ffffff"
     bordercolor="#666666"
     borderopacity="1.0"
     inkscape:pageopacity="0.0"
     inkscape:pageshadow="2"
     inkscape:zoom="0.49497475"
     inkscape:cx="909.04792"
     inkscape:cy="268.56851"
     inkscape:document-units="px"
     inkscape:current-layer="layer1"
     showgrid="false"
     inkscape:window-width="1366"
     inkscape:window-height="720"
     inkscape:window-x="0"
     inkscape:window-y="0"
     inkscape:window-maximized="0"
     showguides="true"
     inkscape:guide-bbox="true">
    <sodipodi:guide
       orientation="1,0"
       position="363.65492,1486.9445"
       id="guide3166" />
    <sodipodi:guide
       orientation="0,1"
       position="1236.4267,598.01031"
       id="guide3168" />
  </sodipodi:namedview>
  <defs
     id="defs4" />
  <metadata
     id="metadata7">
    <rdf:RDF>
      <cc:Work
         rdf:about="">
        <dc:format>image/svg+xml</dc:format>
        <dc:type
           rdf:resource="http://purl.org/dc/dcmitype/StillImage" />
      </cc:Work>
    </rdf:RDF>
  </metadata>
  <g
     id="layer1"
     inkscape:groupmode="layer"
     inkscape:label="Layer 1">
    <g
       inkscape:label="Gear24"
       transform="matrix(3.0875685,0,0,-3.0875685,366.20089,456.96269)"
       id="g3006"
       style="fill:#000000;fill-opacity:1" />
    <path
       id="path3170"
       style="fill:#000000;stroke:#000000;stroke-width:1px;stroke-linecap:butt;stroke-linejoin:miter;stroke-opacity:1;fill-opacity:1"
       d="m 428.30468,422.02701 c 0,17.85254 -14.47235,32.32488 -32.32488,32.32488 -17.85254,0 -32.32488,-14.47234 -32.32488,-32.32488 0,-17.85254 14.47234,-32.32488 32.32488,-32.32488 17.85253,0 32.32488,14.47234 32.32488,32.32488 z m 398.82121,40.17804 10.72342,0.86203 28.58153,-4.68309 39.72678,-16.62313 0,-27.84177 -39.72678,-16.62313 -28.58153,-4.68309 -10.72342,0.86203 -5.64294,-42.89368 10.5767,-1.93804 26.39281,-11.92171 34.07774,-26.33779 -7.20805,-26.90026 -42.6797,-5.77133 -28.81996,2.87344 -10.13039,3.60708 -16.55588,-39.96522 9.71466,-4.61584 22.4128,-18.34108 26.09325,-34.26115 -13.92088,-24.11852 -42.71638,5.47176 -27.0959,10.23432 -8.85263,6.10758 -26.33779,-34.32228 8.19235,-6.96961 16.89825,-23.51938 16.3419,-39.849066 -19.69221,-19.692209 -39.84906,16.341905 -23.51938,16.898251 -6.96961,8.192349 -34.32228,-26.337794 6.10758,-8.852629 10.23432,-27.095894 5.47176,-42.7163838 -24.11853,-13.9208822 -34.26114,26.0932479 -18.34108,22.4128041 -4.61584,9.71466 -39.96522,-16.555884 3.60708,-10.130392 2.87343,-28.819956 -5.77132,-42.679701 -26.90026,-7.208046 -26.3378,34.077733 -11.9217,26.3928194 -1.93804,10.5766914 -42.89368,-5.64294 0.86203,-10.7234201 -4.68309,-28.5815217 -16.62314,-39.726787 -27.84176,0 -16.62314,39.726787 -4.68309,28.5815217 0.86203,10.7234201 -42.89368,5.64294 -1.93804,-10.5766914 -11.9217,-26.3928194 -26.3378,-34.077733 -26.90025,7.208046 -5.77133,42.679701 2.87344,28.819956 3.60708,10.130392 -39.96523,16.555884 -4.61583,-9.71466 -18.34109,-22.4128041 -34.26114,-26.0932479 -24.11853,13.9208822 5.47176,42.7163838 10.23432,27.095894 6.10758,8.852629 -34.32228,26.337794 -6.96961,-8.192349 L 92.431,76.69382 52.581939,60.351915 l -19.69221,19.692209 16.341905,39.849066 16.898252,23.51938 8.192351,6.96961 -26.337796,34.32228 -8.85263,-6.10758 -27.095894,-10.23432 -42.716383,-5.47176 -13.920883,24.11852 26.093248,34.26115 22.4128044,18.34108 9.7146606,4.61584 -16.5558848,39.96522 -10.1303922,-3.60708 -28.819955,-2.87344 -42.679702,5.77133 -7.208045,26.90026 34.077733,26.33779 26.392819,11.92171 10.576691,1.93804 -5.64294,42.89368 -10.72342,-0.86203 -28.581522,4.68309 -39.726786,16.62313 0,27.84177 39.726786,16.62313 28.581522,4.68309 10.72342,-0.86203 5.64294,42.89368 -10.576691,1.93805 -26.392819,11.9217 -34.077733,26.3378 7.208045,26.90025 42.679702,5.77133 28.819955,-2.87344 10.1303922,-3.60708 16.5558848,39.96522 -9.7146606,4.61584 -22.4128044,18.34109 -26.093248,34.26114 13.920883,24.11853 42.716383,-5.47176 27.095894,-10.23433 8.85263,-6.10758 26.337796,34.32228 -8.192351,6.96962 -16.898252,23.51938 -16.341905,39.84906 19.69221,19.69221 39.849061,-16.34191 23.51938,-16.89825 6.96961,-8.19235 34.32228,26.3378 -6.10758,8.85263 -10.23432,27.09589 -5.47176,42.71638 24.11853,13.92089 34.26114,-26.09325 18.34109,-22.41281 4.61583,-9.71466 39.96523,16.55589 -3.60708,10.13039 -2.87344,28.81996 5.77133,42.6797 26.90025,7.20804 26.3378,-34.07773 11.9217,-26.39282 1.93804,-10.57669 42.89368,5.64294 -0.86203,10.72342 4.68309,28.58152 16.62314,39.72679 27.84176,0 16.62314,-39.72679 4.68309,-28.58152 -0.86203,-10.72342 42.89368,-5.64294 1.93804,10.57669 11.9217,26.39282 26.3378,34.07773 26.90026,-7.20804 5.77132,-42.6797 -2.87343,-28.81996 -3.60708,-10.13039 39.96522,-16.55589 4.61584,9.71466 18.34108,22.41281 34.26114,26.09325 24.11853,-13.92089 -5.47176,-42.71638 -10.23432,-27.09589 -6.10758,-8.85263 34.32228,-26.3378 6.96961,8.19235 23.51938,16.89825 39.84906,16.34191 19.69221,-19.69221 -16.3419,-39.84906 -16.89825,-23.51938 -8.19235,-6.96962 26.33779,-34.32228 8.85263,6.10758 27.0959,10.23433 42.71638,5.47176 13.92088,-24.11853 -26.09325,-34.26114 -22.4128,-18.34109 -9.71466,-4.61584 16.55588,-39.96522 10.13039,3.60708 28.81996,2.87344 42.6797,-5.77133 7.20805,-26.90025 -34.07774,-26.3378 -26.39281,-11.9217 -10.5767,-1.93805 z"
       transform="matrix(0.50502499,0,0,0.50502499,164.0001,240.89281)" />
    <path
       id="path4040"
       transform="matrix(1,0,0,1.0301507,-21.213215,556.5803)"
       style="fill:#ff0000;fill-opacity:1;stroke:#ff0000;stroke-opacity:1"
       d="m 455.57881,469.50415 c 0,109.9047 -31.65825,199.00006 -70.71068,199.00006 -39.05243,0 -70.71067,-89.09536 -70.71067,-199.00006 0,-109.9047 31.65824,-199.00006 70.71067,-199.00006 39.0473,0 70.70342,89.0728 70.71068,198.96304 m 147.35374,19.41872 5.41561,0.42256 14.43439,-2.29578 20.063,-8.14939 0,-13.64927 -20.063,-8.14939 -14.43439,-2.29587 -5.41561,0.42255 -2.84982,-21.02828 5.3415,-0.95015 13.32903,-5.84454 17.21011,-12.91194 -3.64025,-13.18768 -21.55432,-2.82936 -14.5548,1.40868 -5.1161,1.76836 -8.36113,-19.59271 4.90615,-2.26288 11.31903,-8.99161 13.17774,-16.79631 -7.0304,-11.82396 -21.57284,2.6825 -13.6841,5.01731 -4.4708,2.9942 -13.30124,-16.82629 4.13734,-3.4168 8.53404,-11.53023 8.25306,-19.53576 -9.94505,-9.65398 -20.12478,8.01152 -11.87787,8.28426 -3.51983,4.01625 -17.33361,-12.91194 3.08448,-4.33995 5.16859,-13.2836 2.76338,-20.94144 -12.18046,-6.82462 -17.30274,12.79205 -9.2627,10.98774 -2.33111,4.76255 -20.18344,-8.11642 1.82167,-4.96636 1.45115,-14.1288 -2.91466,-20.92347 -13.5853,-3.53369 -13.30125,16.7064 -6.02076,12.93891 -0.97876,5.18515 -21.66238,-2.76641 0.43535,-5.25709 -2.36508,-14.01191 -8.3951,-19.47581 -14.06078,0 -8.3951,19.47581 -2.36508,14.01191 0.43535,5.25709 -21.66239,2.76641 -0.97875,-5.18515 -6.02076,-12.93891 -13.30125,-16.7064 -13.5853,3.53369 -2.91466,20.92347 1.45116,14.1288 1.82166,4.96636 -20.18344,8.11642 -2.33111,-4.76255 -9.26271,-10.98774 -17.30273,-12.79205 -12.18046,6.82462 2.76338,20.94144 5.16859,13.2836 3.08448,4.33995 -17.33361,12.91194 -3.51983,-4.01625 -11.87788,-8.28426 -20.12477,-8.01152 -9.94505,9.65398 8.25307,19.53576 8.53404,11.53023 4.13734,3.4168 -13.30125,16.82629 -4.4708,-2.9942 -13.6841,-5.01731 -21.57284,-2.6825 -7.0304,11.82396 13.17775,16.79631 11.31902,8.99161 4.90615,2.26288 -8.36114,19.59271 -5.1161,-1.76836 -14.5548,-1.40868 -21.55431,2.82936 -3.64024,13.18768 17.2101,12.91194 13.32904,5.84454 5.34149,0.95015 -2.84983,21.02828 -5.41559,-0.42255 -14.43438,2.29587 -20.06302,8.14939 0,13.64927 20.06302,8.14939 14.43438,2.29578 5.41559,-0.42256 2.84983,21.02838 -5.34149,0.95005 -13.32904,5.84459 -17.2101,12.91189 3.64024,13.18769 21.55431,2.82939 14.5548,-1.40873 5.1161,-1.76828 8.36114,19.59266 -4.90615,2.26288 -11.31902,8.99159 -13.17775,16.79638 7.0304,11.8239 21.57284,-2.68252 13.6841,-5.01723 4.4708,-2.99422 13.30125,16.82628 -4.13734,3.41678 -8.53404,11.53026 -8.25307,19.53578 9.94505,9.65393 20.12477,-8.01155 11.87788,-8.28423 3.51983,-4.0162 17.33361,12.91189 -3.08448,4.33995 -5.16859,13.28359 -2.76338,20.9415 12.18046,6.82463 17.30273,-12.79211 9.26271,-10.98771 2.33111,-4.7626 20.18344,8.11648 -1.82166,4.96636 -1.45116,14.12881 2.91466,20.92344 13.5853,3.53366 13.30125,-16.70639 6.02076,-12.93889 0.97875,-5.18516 21.66239,2.76639 -0.43535,5.2571 2.36508,14.01193 8.3951,19.47579 14.06078,0 8.3951,-19.47579 2.36508,-14.01193 -0.43535,-5.2571 21.66238,-2.76639 0.97876,5.18516 6.02076,12.93889 13.30125,16.70639 13.5853,-3.53366 2.91466,-20.92344 -1.45115,-14.12881 -1.82167,-4.96636 20.18344,-8.11648 2.33111,4.7626 9.2627,10.98771 17.30274,12.79211 12.18046,-6.82463 -2.76338,-20.9415 -5.16859,-13.28359 -3.08448,-4.33995 17.33361,-12.91189 3.51983,4.0162 11.87787,8.28423 20.12478,8.01155 9.94505,-9.65393 -8.25306,-19.53578 -8.53404,-11.53026 -4.13734,-3.41678 13.30124,-16.82628 4.4708,2.99422 13.6841,5.01723 21.57284,2.68252 7.0304,-11.8239 -13.17774,-16.79638 -11.31903,-8.99159 -4.90615,-2.26288 8.36113,-19.59266 5.1161,1.76828 14.5548,1.40873 21.55432,-2.82939 3.64025,-13.18769 -17.21011,-12.91189 -13.32903,-5.84459 -5.3415,-0.95005 z"
       inkscape:connector-curvature="0"
       sodipodi:nodetypes="cssscccccccccccccccccccccccccccccccccccccccccccccccccccccccccccccccccccccccccccccccccccccccccccccccccccccccccccccccccccccccccccccccccccccccccccccccccccccccccccccccccccccccccccccccccccccccccccccccccc" />
  </g>
</svg>
